<svg width="100" height="136" viewBox="0 0 100 136" fill="none" xmlns="http://www.w3.org/2000/svg">
<path d="M15.4275 49.8716C15.4275 48.6452 16.4191 47.6484 17.6406 47.6484H70.3785C71.6015 47.6484 72.5909 48.6445 72.5909 49.8716C72.5909 51.1001 71.6007 52.0947 70.3785 52.0947H17.6406C16.4198 52.094 15.4275 51.1044 15.4275 49.8716ZM17.6406 71.3622H70.3785C71.6015 71.3622 72.5909 70.364 72.5909 69.1397C72.5909 67.9198 71.6007 66.9166 70.3785 66.9166H17.6406C16.4198 66.9166 15.4275 67.9112 15.4275 69.1397C15.4275 70.3682 16.4198 71.3622 17.6406 71.3622ZM40.4447 86.1755H17.6448C16.424 86.1755 15.4318 87.1779 15.4318 88.3979C15.4318 89.6314 16.4233 90.621 17.6448 90.621H40.4447C41.6684 90.621 42.6578 89.6314 42.6578 88.3979C42.6578 87.1701 41.6684 86.1755 40.4447 86.1755ZM37.4935 105.444H17.6448C16.424 105.444 15.4318 106.438 15.4318 107.667C15.4318 108.891 16.4233 109.889 17.6448 109.889H37.4935C38.7165 109.889 39.7066 108.891 39.7066 107.667C39.7059 106.438 38.7165 105.444 37.4935 105.444ZM100 108.031C100 123.457 87.5187 136 72.1586 136C64.98 136 58.4537 133.239 53.5095 128.741C53.5052 128.741 53.4967 128.75 53.4882 128.75H2.21306C0.990127 128.75 0 127.747 0 126.527V22.548C0 21.3209 0.990127 20.3248 2.21306 20.3248H20.9013V14.2165C20.9013 12.9902 21.8928 11.9941 23.1143 11.9941H32.1837C32.1837 11.9592 32.1837 11.9185 32.1837 11.8836C32.1837 5.32897 37.4935 0 44.017 0C50.5412 0 55.8481 5.32897 55.8481 11.8829C55.8481 11.9178 55.8481 11.9585 55.8481 11.9934H64.9147C66.1341 11.9934 67.1278 12.9895 67.1278 14.2158V20.3241H85.811C87.0347 20.3241 88.0234 21.3202 88.0234 22.5472V85.0717C95.2552 90.1305 100 98.5318 100 108.031ZM25.3267 27.3279H62.6981V16.4432H53.315C52.6386 16.4432 51.9884 16.1288 51.5668 15.5855C51.1452 15.0422 51.0004 14.3377 51.1686 13.6754C51.3411 12.9937 51.4199 12.429 51.4199 11.8864C51.4199 7.78383 48.096 4.44913 44.012 4.44913C39.928 4.44913 36.6042 7.78383 36.6042 11.8864C36.6042 12.429 36.6844 13.0151 36.8505 13.6839C37.0144 14.3456 36.8654 15.0515 36.4487 15.5898C36.0342 16.1281 35.3876 16.4425 34.7048 16.4425H25.3267V27.3279ZM4.42612 124.295H49.5532C46.2705 119.71 44.313 114.101 44.313 108.03C44.313 92.6096 56.8035 80.0536 72.1544 80.0536C76.2299 80.0536 80.0945 80.9656 83.5902 82.5506V24.7661H67.1193V29.5418C67.1193 30.7681 66.1256 31.7642 64.9069 31.7642H23.1101C21.8893 31.7642 20.897 30.7681 20.897 29.5418V24.7661H4.42186L4.42612 124.295ZM95.5753 108.031C95.5753 95.0595 85.0686 84.4999 72.1593 84.4999C59.2501 84.4999 48.7434 95.0588 48.7434 108.031C48.7434 121.004 59.2501 131.554 72.1593 131.554C85.0686 131.554 95.5753 121.004 95.5753 108.031ZM84.3638 98.7656L70.8101 111.821L61.6391 104.458C60.6838 103.695 59.2962 103.85 58.5275 104.805C57.7667 105.769 57.9221 107.158 58.8725 107.931L69.5566 116.519C69.9626 116.84 70.4516 116.996 70.9392 116.996C71.4922 116.996 72.0465 116.788 72.4695 116.376L87.4186 101.975C88.2952 101.133 88.33 99.7132 87.4832 98.832C86.6372 97.9371 85.2411 97.9193 84.3638 98.7656Z" fill="#3C83B7"/>
</svg>
