<svg width="115" height="137" viewBox="0 0 115 137" fill="none" xmlns="http://www.w3.org/2000/svg">
<path d="M2 9.95191V8.45191H0.5V9.95191H2ZM56.683 134.946L55.9392 136.249L56.8924 136.793L57.6995 136.049L56.683 134.946ZM113 9.95191H114.5V8.45191H113V9.95191ZM105.811 16.3788H107.311V14.8788H105.811V16.3788ZM105.811 64.3081L107.249 64.733L107.311 64.525V64.3081H105.811ZM56.683 127.43L55.833 128.666L56.9038 129.402L57.7852 128.447L56.683 127.43ZM8.97154 16.3788V14.8788H7.47154V16.3788H8.97154ZM20.6271 26.6183V25.1183H19.1271V26.6183H20.6271ZM93.3925 26.6183H94.8925V25.1183H93.3925V26.6183ZM93.3925 34.897V36.397H94.8925V34.897H93.3925ZM20.6271 34.897H19.1271V36.397H20.6271V34.897ZM26.0736 68.5564H24.5736V69.1364L24.9637 69.5655L26.0736 68.5564ZM88.055 68.5564L89.1254 69.6072L89.555 69.1696V68.5564H88.055ZM25.2022 22.9146V21.4146H23.7022V22.9146H25.2022ZM42.9578 22.9146H44.4578V21.4146H42.9578V22.9146ZM80.9745 20.736H79.4745V22.236H80.9745V20.736ZM87.2924 20.736V22.236H88.7924V20.736H87.2924ZM87.2924 2H88.7924V0.5H87.2924V2ZM80.9745 2V0.5H79.4745V2H80.9745ZM53.524 87.0166L53.2317 85.5453L52.1102 85.7682L52.0279 86.9087L53.524 87.0166ZM75.3101 79.0647L76.066 77.769L75.3361 77.3432L74.5937 77.7468L75.3101 79.0647ZM98.948 87.0166L100.445 86.9221L100.37 85.7302L99.1913 85.5364L98.948 87.0166ZM75.9637 129.826L75.334 131.188L75.8483 131.425L76.3914 131.264L75.9637 129.826ZM59.2974 92.1363L58.9473 90.6777L57.7974 90.9537V92.1363H59.2974ZM75.9637 86.1451L76.6773 84.8258L75.9607 84.4381L75.2454 84.8283L75.9637 86.1451ZM75.9637 121.765L75.4852 123.187L75.9362 123.339L76.3922 123.203L75.9637 121.765ZM78.6055 120.757L77.9662 119.4V119.4L78.6055 120.757ZM70.4805 126.939L71.2544 125.654L70.4805 126.939ZM98.4925 98.894L99.9767 99.1111L98.4925 98.894ZM87.7957 112.097L86.5109 111.323L87.7957 112.097ZM97.8889 86.8409L98.1368 85.3615L97.8889 86.8409ZM92.8182 92.1363L94.3144 92.243L94.3993 91.0518L93.2575 90.7021L92.8182 92.1363ZM64.1455 122.278L63.1362 123.387L64.1455 122.278ZM60.3867 103.901L58.9209 104.22L58.9232 104.23L58.9256 104.24L60.3867 103.901ZM113 64.3081L114.419 64.7944L114.5 64.558V64.3081H113ZM23.0236 8.45191H2V11.4519H23.0236V8.45191ZM0.5 9.95191V64.3081H3.5V9.95191H0.5ZM0.5 64.3081C0.5 75.2376 5.32663 88.0556 14.6122 100.679C23.9126 113.323 37.7483 125.862 55.9392 136.249L57.4268 133.643C39.5618 123.442 26.056 111.174 17.0289 98.9016C7.98692 86.6092 3.5 74.4022 3.5 64.3081H0.5ZM113 8.45191H94.3729V11.4519H113V8.45191ZM94.3729 17.8788H105.811V14.8788H94.3729V17.8788ZM104.311 16.3788V64.3081H107.311V16.3788H104.311ZM57.533 126.194C43.3592 116.446 31.5589 105.886 23.317 95.2733C15.0625 84.644 10.4715 74.0859 10.4715 64.3081H7.47154C7.47154 75.0092 12.4763 86.205 20.9475 97.1133C29.4314 108.038 41.4868 118.799 55.833 128.666L57.533 126.194ZM10.4715 64.3081V16.3788H7.47154V64.3081H10.4715ZM8.97154 17.8788H23.0236V14.8788H8.97154V17.8788ZM91.8925 26.6183V34.897H94.8925V26.6183H91.8925ZM22.1271 34.897V26.6183H19.1271V34.897H22.1271ZM26.0736 33.397H20.6271V36.397H26.0736V33.397ZM24.5736 34.897V68.5564H27.5736V34.897H24.5736ZM24.9637 69.5655C26.1728 70.8954 27.3137 71.9924 28.4391 72.7694C29.5737 73.5527 30.774 74.067 32.0788 74.1027C34.6922 74.174 36.9496 72.3234 39.3114 69.5236L37.0183 67.5892C34.6588 70.3863 33.2319 71.133 32.1606 71.1038C31.6231 71.0891 30.981 70.8787 30.1435 70.3005C29.2967 69.7159 28.3357 68.8147 27.1835 67.5474L24.9637 69.5655ZM38.1649 33.397H26.0736V36.397H38.1649V33.397ZM39.6649 68.5564V34.897H36.6649V68.5564H39.6649ZM37.1325 69.6447C38.8311 71.256 40.3207 72.4406 41.6755 73.2009C43.038 73.9655 44.3623 74.3558 45.6813 74.2236C47.0117 74.0903 48.1091 73.4485 49.0536 72.5948C49.9797 71.7577 50.8391 70.6434 51.7005 69.4199L49.2475 67.6929C48.4065 68.8873 47.7058 69.7691 47.0419 70.3692C46.3963 70.9527 45.8738 71.1893 45.3822 71.2386C44.8791 71.289 44.1795 71.166 43.1437 70.5847C42.1002 69.9992 40.8174 69.0052 39.1972 67.4682L37.1325 69.6447ZM50.474 33.397H38.1649V36.397H50.474V33.397ZM51.974 68.5564V34.897H48.974V68.5564H51.974ZM49.5512 69.739C52.1278 71.7496 54.399 72.8337 56.8426 72.7516C59.2261 72.6715 61.4586 71.4826 63.9497 69.7993L62.2701 67.3136C59.8242 68.9663 58.2077 69.704 56.7419 69.7533C55.3363 69.8005 53.7582 69.2166 51.3968 67.3739L49.5512 69.739ZM63.1099 33.397H50.474V36.397H63.1099V33.397ZM64.6099 68.5564V34.897H61.6099V68.5564H64.6099ZM62.0936 69.6597C64.7022 72.0627 67.1009 73.8225 69.6757 73.9222C72.372 74.0266 74.6787 72.3234 77.0962 69.54L74.8312 67.5728C72.5066 70.2493 71.02 70.972 69.7917 70.9245C68.4419 70.8722 66.7847 69.9021 64.1262 67.4532L62.0936 69.6597ZM75.9637 33.397H63.1099V36.397H75.9637V33.397ZM77.4637 68.5564V34.897H74.4637V68.5564H77.4637ZM75.0291 69.7297C77.7493 71.8964 80.1095 73.2566 82.5099 73.2361C84.9804 73.215 87.0244 71.7474 89.1254 69.6072L86.9845 67.5056C84.9851 69.5424 83.6841 70.226 82.4843 70.2362C81.2146 70.2471 79.5794 69.5188 76.8983 67.3831L75.0291 69.7297ZM93.3925 33.397H88.055V36.397H93.3925V33.397ZM88.055 33.397H75.9637V36.397H88.055V33.397ZM89.555 68.5564V34.897H86.555V68.5564H89.555ZM20.6271 28.1183H25.2022V25.1183H20.6271V28.1183ZM26.7022 26.6183V22.9146H23.7022V26.6183H26.7022ZM25.2022 28.1183H42.9578V25.1183H25.2022V28.1183ZM42.9578 28.1183H93.3925V25.1183H42.9578V28.1183ZM41.4578 22.9146V26.6183H44.4578V22.9146H41.4578ZM38.9274 24.4146H42.9578V21.4146H38.9274V24.4146ZM40.4274 22.9146C40.4274 22.9414 40.4472 22.71 40.5987 22.251C40.7349 21.838 40.9405 21.3557 41.209 20.9063C41.7945 19.9264 42.4101 19.5128 42.9578 19.5128V16.5128C40.7822 16.5128 39.3826 18.1143 38.6337 19.3675C38.2351 20.0346 37.9436 20.7234 37.7497 21.3111C37.5709 21.8529 37.4274 22.4521 37.4274 22.9146H40.4274ZM42.9578 19.5128H80.9745V16.5128H42.9578V19.5128ZM79.4745 18.0128V20.736H82.4745V18.0128H79.4745ZM80.9745 22.236H87.2924V19.236H80.9745V22.236ZM88.7924 20.736V2H85.7924V20.736H88.7924ZM87.2924 0.5H80.9745V3.5H87.2924V0.5ZM79.4745 2V4.72326H82.4745V2H79.4745ZM79.4745 4.72326V18.0128H82.4745V4.72326H79.4745ZM80.9745 3.22326H41.7596V6.22326H80.9745V3.22326ZM40.2717 4.53251C39.6937 9.04099 40.2822 13.3843 41.5007 18.3689L44.4149 17.6566C43.2369 12.8375 42.7361 8.90209 43.2474 4.914L40.2717 4.53251ZM25.2022 24.4146H27.1629V21.4146H25.2022V24.4146ZM27.1629 24.4146H38.9274V21.4146H27.1629V24.4146ZM41.7596 3.22326C36.7708 3.22326 32.6571 4.91294 29.8275 8.37655C27.0372 11.7919 25.6629 16.7288 25.6629 22.9146H28.6629C28.6629 17.1181 29.9574 12.9593 32.1507 10.2746C34.3046 7.63809 37.4893 6.22326 41.7596 6.22326V3.22326ZM53.8164 88.4878C62.3204 86.7981 67.2108 85.1748 76.0265 80.3825L74.5937 77.7468C66.0521 82.3901 61.4487 83.9126 53.2317 85.5453L53.8164 88.4878ZM59.6474 93.5949C67.8831 91.6183 70.5294 90.8179 76.682 87.462L75.2454 84.8283C69.4156 88.0082 67.0511 88.7328 58.9473 90.6777L59.6474 93.5949ZM69.7067 128.224C71.452 129.275 73.3273 130.26 75.334 131.188L76.5934 128.465C74.6733 127.577 72.8956 126.643 71.2544 125.654L69.7067 128.224ZM76.3914 131.264C87.8216 127.863 97.5389 115.779 99.9767 99.1111L97.0083 98.6769C94.6906 114.524 85.555 125.408 75.5359 128.388L76.3914 131.264ZM86.5109 111.323C84.3466 114.915 81.5037 117.733 77.9662 119.4L79.2449 122.114C83.4225 120.145 86.6758 116.862 89.0804 112.872L86.5109 111.323ZM97.451 87.111C97.7084 91.191 97.5373 95.0598 97.0083 98.6769L99.9767 99.1111C100.537 95.2823 100.715 91.2046 100.445 86.9221L97.451 87.111ZM77.9662 119.4C77.1921 119.764 76.3821 120.075 75.5352 120.328L76.3922 123.203C77.3842 122.907 78.3351 122.542 79.2449 122.114L77.9662 119.4ZM99.1913 85.5364C98.8336 85.4776 98.4823 85.4194 98.1368 85.3615L97.6409 88.3202C97.99 88.3787 98.3445 88.4375 98.7047 88.4967L99.1913 85.5364ZM74.5542 80.3603C83.3434 85.488 88.7253 86.826 97.6409 88.3202L98.1368 85.3615C89.4424 83.9043 84.4407 82.655 76.066 77.769L74.5542 80.3603ZM52.0279 86.9087C50.8181 103.686 54.0649 115.136 63.1362 123.387L65.1548 121.168C57.0305 113.778 53.8454 103.415 55.0202 87.1245L52.0279 86.9087ZM61.8524 103.582C60.7977 98.7343 60.7974 96.0262 60.7974 92.1363H57.7974C57.7974 96.0894 57.797 99.0537 58.9209 104.22L61.8524 103.582ZM76.4421 120.344C75.2124 119.93 72.3434 118.992 69.39 116.547C66.4565 114.118 63.3777 110.147 61.8477 103.561L58.9256 104.24C60.6097 111.489 64.0566 116.025 67.4766 118.857C70.8767 121.673 74.1891 122.751 75.4852 123.187L76.4421 120.344ZM71.2544 125.654C68.9581 124.271 66.9306 122.783 65.1548 121.168L63.1362 123.387C65.0749 125.151 67.2642 126.753 69.7067 128.224L71.2544 125.654ZM74.4637 103.901V121.765H77.4637V103.901H74.4637ZM75.9637 102.401C75.9592 102.401 75.9547 102.401 75.9502 102.401C75.9457 102.401 75.9411 102.401 75.9366 102.401C75.932 102.401 75.9274 102.401 75.9228 102.401C75.9182 102.401 75.9136 102.401 75.9089 102.401C75.9042 102.401 75.8996 102.401 75.8948 102.401C75.8901 102.401 75.8854 102.401 75.8806 102.401C75.8759 102.401 75.8711 102.401 75.8663 102.401C75.8615 102.401 75.8566 102.401 75.8518 102.401C75.8469 102.401 75.8421 102.401 75.8372 102.401C75.8323 102.401 75.8273 102.401 75.8224 102.401C75.8174 102.401 75.8124 102.401 75.8074 102.401C75.8025 102.401 75.7974 102.401 75.7924 102.401C75.7873 102.401 75.7823 102.401 75.7772 102.401C75.7721 102.401 75.767 102.401 75.7618 102.401C75.7567 102.401 75.7515 102.401 75.7463 102.401C75.7412 102.401 75.736 102.401 75.7307 102.401C75.7255 102.401 75.7202 102.401 75.715 102.401C75.7097 102.401 75.7044 102.401 75.6991 102.401C75.6937 102.401 75.6884 102.401 75.683 102.401C75.6776 102.401 75.6722 102.401 75.6668 102.401C75.6614 102.401 75.656 102.401 75.6505 102.401C75.645 102.401 75.6396 102.401 75.634 102.401C75.6285 102.401 75.623 102.401 75.6175 102.401C75.6119 102.401 75.6063 102.401 75.6007 102.401C75.5951 102.401 75.5895 102.401 75.5839 102.401C75.5782 102.401 75.5725 102.401 75.5669 102.401C75.5612 102.401 75.5555 102.401 75.5497 102.401C75.544 102.401 75.5382 102.401 75.5324 102.401C75.5267 102.401 75.5209 102.401 75.515 102.401C75.5092 102.401 75.5034 102.401 75.4975 102.401C75.4916 102.401 75.4857 102.401 75.4798 102.401C75.4739 102.401 75.468 102.401 75.462 102.401C75.4561 102.401 75.4501 102.401 75.4441 102.401C75.4381 102.401 75.4321 102.401 75.426 102.401C75.42 102.401 75.4139 102.401 75.4078 102.401C75.4017 102.401 75.3956 102.401 75.3895 102.401C75.3834 102.401 75.3772 102.401 75.371 102.401C75.3649 102.401 75.3587 102.401 75.3525 102.401C75.3462 102.401 75.34 102.401 75.3337 102.401C75.3275 102.401 75.3212 102.401 75.3149 102.401C75.3086 102.401 75.3023 102.401 75.2959 102.401C75.2896 102.401 75.2832 102.401 75.2768 102.401C75.2704 102.401 75.264 102.401 75.2576 102.401C75.2512 102.401 75.2447 102.401 75.2382 102.401C75.2318 102.401 75.2253 102.401 75.2188 102.401C75.2122 102.401 75.2057 102.401 75.1992 102.401C75.1926 102.401 75.186 102.401 75.1794 102.401C75.1728 102.401 75.1662 102.401 75.1596 102.401C75.1529 102.401 75.1463 102.401 75.1396 102.401C75.1329 102.401 75.1262 102.401 75.1195 102.401C75.1127 102.401 75.106 102.401 75.0992 102.401C75.0925 102.401 75.0857 102.401 75.0789 102.401C75.0721 102.401 75.0653 102.401 75.0584 102.401C75.0516 102.401 75.0447 102.401 75.0378 102.401C75.0309 102.401 75.024 102.401 75.0171 102.401C75.0102 102.401 75.0032 102.401 74.9963 102.401C74.9893 102.401 74.9823 102.401 74.9753 102.401C74.9683 102.401 74.9613 102.401 74.9542 102.401C74.9472 102.401 74.9401 102.401 74.933 102.401C74.9259 102.401 74.9188 102.401 74.9117 102.401C74.9046 102.401 74.8974 102.401 74.8903 102.401C74.8831 102.401 74.8759 102.401 74.8687 102.401C74.8615 102.401 74.8543 102.401 74.847 102.401C74.8398 102.401 74.8325 102.401 74.8252 102.401C74.818 102.401 74.8106 102.401 74.8033 102.401C74.796 102.401 74.7887 102.401 74.7813 102.401C74.7739 102.401 74.7666 102.401 74.7592 102.401C74.7518 102.401 74.7443 102.401 74.7369 102.401C74.7295 102.401 74.722 102.401 74.7145 102.401C74.7071 102.401 74.6996 102.401 74.692 102.401C74.6845 102.401 74.677 102.401 74.6694 102.401C74.6619 102.401 74.6543 102.401 74.6467 102.401C74.6391 102.401 74.6315 102.401 74.6239 102.401C74.6163 102.401 74.6086 102.401 74.601 102.401C74.5933 102.401 74.5856 102.401 74.5779 102.401C74.5702 102.401 74.5625 102.401 74.5547 102.401C74.547 102.401 74.5393 102.401 74.5315 102.401C74.5237 102.401 74.5159 102.401 74.5081 102.401C74.5003 102.401 74.4924 102.401 74.4846 102.401C74.4767 102.401 74.4689 102.401 74.461 102.401C74.4531 102.401 74.4452 102.401 74.4373 102.401C74.4294 102.401 74.4214 102.401 74.4135 102.401C74.4055 102.401 74.3975 102.401 74.3895 102.401C74.3815 102.401 74.3735 102.401 74.3655 102.401C74.3575 102.401 74.3494 102.401 74.3413 102.401C74.3333 102.401 74.3252 102.401 74.3171 102.401C74.309 102.401 74.3009 102.401 74.2927 102.401C74.2846 102.401 74.2764 102.401 74.2682 102.401C74.2601 102.401 74.2519 102.401 74.2437 102.401C74.2355 102.401 74.2272 102.401 74.219 102.401C74.2108 102.401 74.2025 102.401 74.1942 102.401C74.1859 102.401 74.1777 102.401 74.1693 102.401C74.161 102.401 74.1527 102.401 74.1443 102.401C74.136 102.401 74.1276 102.401 74.1193 102.401C74.1109 102.401 74.1025 102.401 74.0941 102.401C74.0856 102.401 74.0772 102.401 74.0688 102.401C74.0603 102.401 74.0518 102.401 74.0434 102.401C74.0349 102.401 74.0264 102.401 74.0179 102.401C74.0093 102.401 74.0008 102.401 73.9923 102.401C73.9837 102.401 73.9751 102.401 73.9666 102.401C73.958 102.401 73.9494 102.401 73.9408 102.401C73.9321 102.401 73.9235 102.401 73.9149 102.401C73.9062 102.401 73.8975 102.401 73.8889 102.401C73.8802 102.401 73.8715 102.401 73.8628 102.401C73.854 102.401 73.8453 102.401 73.8366 102.401C73.8278 102.401 73.819 102.401 73.8103 102.401C73.8015 102.401 73.7927 102.401 73.7839 102.401C73.7751 102.401 73.7662 102.401 73.7574 102.401C73.7485 102.401 73.7397 102.401 73.7308 102.401C73.7219 102.401 73.713 102.401 73.7041 102.401C73.6952 102.401 73.6863 102.401 73.6774 102.401C73.6684 102.401 73.6595 102.401 73.6505 102.401C73.6415 102.401 73.6325 102.401 73.6235 102.401C73.6145 102.401 73.6055 102.401 73.5965 102.401C73.5874 102.401 73.5784 102.401 73.5693 102.401C73.5602 102.401 73.5512 102.401 73.5421 102.401C73.533 102.401 73.5239 102.401 73.5147 102.401C73.5056 102.401 73.4965 102.401 73.4873 102.401C73.4781 102.401 73.469 102.401 73.4598 102.401C73.4506 102.401 73.4414 102.401 73.4322 102.401C73.423 102.401 73.4137 102.401 73.4045 102.401C73.3952 102.401 73.386 102.401 73.3767 102.401C73.3674 102.401 73.3581 102.401 73.3488 102.401C73.3395 102.401 73.3302 102.401 73.3208 102.401C73.3115 102.401 73.3022 102.401 73.2928 102.401C73.2834 102.401 73.274 102.401 73.2646 102.401C73.2552 102.401 73.2458 102.401 73.2364 102.401C73.227 102.401 73.2175 102.401 73.2081 102.401C73.1986 102.401 73.1892 102.401 73.1797 102.401C73.1702 102.401 73.1607 102.401 73.1512 102.401C73.1417 102.401 73.1321 102.401 73.1226 102.401C73.1131 102.401 73.1035 102.401 73.0939 102.401C73.0844 102.401 73.0748 102.401 73.0652 102.401C73.0556 102.401 73.046 102.401 73.0364 102.401C73.0267 102.401 73.0171 102.401 73.0075 102.401C72.9978 102.401 72.9881 102.401 72.9785 102.401C72.9688 102.401 72.9591 102.401 72.9494 102.401C72.9397 102.401 72.9299 102.401 72.9202 102.401C72.9105 102.401 72.9007 102.401 72.891 102.401C72.8812 102.401 72.8714 102.401 72.8616 102.401C72.8518 102.401 72.842 102.401 72.8322 102.401C72.8224 102.401 72.8126 102.401 72.8027 102.401C72.7929 102.401 72.783 102.401 72.7732 102.401C72.7633 102.401 72.7534 102.401 72.7435 102.401C72.7336 102.401 72.7237 102.401 72.7138 102.401C72.7039 102.401 72.6939 102.401 72.684 102.401C72.674 102.401 72.6641 102.401 72.6541 102.401C72.6441 102.401 72.6341 102.401 72.6241 102.401C72.6141 102.401 72.6041 102.401 72.5941 102.401C72.5841 102.401 72.574 102.401 72.564 102.401C72.5539 102.401 72.5439 102.401 72.5338 102.401C72.5237 102.401 72.5136 102.401 72.5035 102.401C72.4934 102.401 72.4833 102.401 72.4732 102.401C72.463 102.401 72.4529 102.401 72.4428 102.401C72.4326 102.401 72.4224 102.401 72.4123 102.401C72.4021 102.401 72.3919 102.401 72.3817 102.401C72.3715 102.401 72.3613 102.401 72.3511 102.401C72.3408 102.401 72.3306 102.401 72.3203 102.401C72.3101 102.401 72.2998 102.401 72.2896 102.401C72.2793 102.401 72.269 102.401 72.2587 102.401C72.2484 102.401 72.2381 102.401 72.2278 102.401C72.2174 102.401 72.2071 102.401 72.1968 102.401C72.1864 102.401 72.1761 102.401 72.1657 102.401C72.1553 102.401 72.145 102.401 72.1346 102.401C72.1242 102.401 72.1138 102.401 72.1033 102.401C72.0929 102.401 72.0825 102.401 72.0721 102.401C72.0616 102.401 72.0512 102.401 72.0407 102.401C72.0303 102.401 72.0198 102.401 72.0093 102.401C71.9988 102.401 71.9883 102.401 71.9778 102.401C71.9673 102.401 71.9568 102.401 71.9463 102.401C71.9357 102.401 71.9252 102.401 71.9146 102.401C71.9041 102.401 71.8935 102.401 71.883 102.401C71.8724 102.401 71.8618 102.401 71.8512 102.401C71.8406 102.401 71.83 102.401 71.8194 102.401C71.8088 102.401 71.7982 102.401 71.7875 102.401C71.7769 102.401 71.7662 102.401 71.7556 102.401C71.7449 102.401 71.7342 102.401 71.7236 102.401C71.7129 102.401 71.7022 102.401 71.6915 102.401C71.6808 102.401 71.6701 102.401 71.6594 102.401C71.6486 102.401 71.6379 102.401 71.6272 102.401C71.6164 102.401 71.6057 102.401 71.5949 102.401C71.5841 102.401 71.5734 102.401 71.5626 102.401C71.5518 102.401 71.541 102.401 71.5302 102.401C71.5194 102.401 71.5086 102.401 71.4977 102.401C71.4869 102.401 71.4761 102.401 71.4652 102.401C71.4544 102.401 71.4435 102.401 71.4327 102.401C71.4218 102.401 71.4109 102.401 71.4001 102.401C71.3892 102.401 71.3783 102.401 71.3674 102.401C71.3565 102.401 71.3456 102.401 71.3346 102.401C71.3237 102.401 71.3128 102.401 71.3018 102.401C71.2909 102.401 71.2799 102.401 71.269 102.401C71.258 102.401 71.247 102.401 71.2361 102.401C71.2251 102.401 71.2141 102.401 71.2031 102.401C71.1921 102.401 71.1811 102.401 71.1701 102.401C71.1591 102.401 71.148 102.401 71.137 102.401C71.126 102.401 71.1149 102.401 71.1039 102.401C71.0928 102.401 71.0817 102.401 71.0707 102.401C71.0596 102.401 71.0485 102.401 71.0374 102.401C71.0263 102.401 71.0152 102.401 71.0041 102.401C70.993 102.401 70.9819 102.401 70.9708 102.401C70.9597 102.401 70.9485 102.401 70.9374 102.401C70.9262 102.401 70.9151 102.401 70.9039 102.401C70.8928 102.401 70.8816 102.401 70.8704 102.401C70.8592 102.401 70.8481 102.401 70.8369 102.401C70.8257 102.401 70.8145 102.401 70.8032 102.401C70.792 102.401 70.7808 102.401 70.7696 102.401C70.7584 102.401 70.7471 102.401 70.7359 102.401C70.7246 102.401 70.7134 102.401 70.7021 102.401C70.6909 102.401 70.6796 102.401 70.6683 102.401C70.657 102.401 70.6458 102.401 70.6345 102.401C70.6232 102.401 70.6119 102.401 70.6006 102.401C70.5892 102.401 70.5779 102.401 70.5666 102.401C70.5553 102.401 70.544 102.401 70.5326 102.401C70.5213 102.401 70.5099 102.401 70.4986 102.401C70.4872 102.401 70.4758 102.401 70.4645 102.401C70.4531 102.401 70.4417 102.401 70.4303 102.401C70.419 102.401 70.4076 102.401 70.3962 102.401C70.3848 102.401 70.3734 102.401 70.3619 102.401C70.3505 102.401 70.3391 102.401 70.3277 102.401C70.3162 102.401 70.3048 102.401 70.2934 102.401C70.2819 102.401 70.2705 102.401 70.259 102.401C70.2475 102.401 70.2361 102.401 70.2246 102.401C70.2131 102.401 70.2016 102.401 70.1902 102.401C70.1787 102.401 70.1672 102.401 70.1557 102.401C70.1442 102.401 70.1327 102.401 70.1211 102.401C70.1096 102.401 70.0981 102.401 70.0866 102.401C70.0751 102.401 70.0635 102.401 70.052 102.401C70.0404 102.401 70.0289 102.401 70.0173 102.401C70.0058 102.401 69.9942 102.401 69.9827 102.401C69.9711 102.401 69.9595 102.401 69.9479 102.401C69.9363 102.401 69.9248 102.401 69.9132 102.401C69.9016 102.401 69.89 102.401 69.8784 102.401C69.8668 102.401 69.8551 102.401 69.8435 102.401C69.8319 102.401 69.8203 102.401 69.8087 102.401C69.797 102.401 69.7854 102.401 69.7737 102.401C69.7621 102.401 69.7505 102.401 69.7388 102.401C69.7271 102.401 69.7155 102.401 69.7038 102.401C69.6921 102.401 69.6805 102.401 69.6688 102.401C69.6571 102.401 69.6454 102.401 69.6337 102.401C69.622 102.401 69.6104 102.401 69.5987 102.401C69.587 102.401 69.5752 102.401 69.5635 102.401C69.5518 102.401 69.5401 102.401 69.5284 102.401C69.5167 102.401 69.5049 102.401 69.4932 102.401C69.4815 102.401 69.4697 102.401 69.458 102.401C69.4462 102.401 69.4345 102.401 69.4227 102.401C69.411 102.401 69.3992 102.401 69.3874 102.401C69.3757 102.401 69.3639 102.401 69.3521 102.401C69.3403 102.401 69.3286 102.401 69.3168 102.401C69.305 102.401 69.2932 102.401 69.2814 102.401C69.2696 102.401 69.2578 102.401 69.246 102.401C69.2342 102.401 69.2224 102.401 69.2106 102.401C69.1988 102.401 69.1869 102.401 69.1751 102.401C69.1633 102.401 69.1515 102.401 69.1396 102.401C69.1278 102.401 69.116 102.401 69.1041 102.401C69.0923 102.401 69.0804 102.401 69.0686 102.401C69.0567 102.401 69.0449 102.401 69.033 102.401C69.0211 102.401 69.0093 102.401 68.9974 102.401C68.9855 102.401 68.9737 102.401 68.9618 102.401C68.9499 102.401 68.938 102.401 68.9261 102.401C68.9142 102.401 68.9024 102.401 68.8905 102.401C68.8786 102.401 68.8667 102.401 68.8548 102.401C68.8429 102.401 68.831 102.401 68.819 102.401C68.8071 102.401 68.7952 102.401 68.7833 102.401C68.7714 102.401 68.7595 102.401 68.7475 102.401C68.7356 102.401 68.7237 102.401 68.7117 102.401C68.6998 102.401 68.6879 102.401 68.6759 102.401C68.664 102.401 68.652 102.401 68.6401 102.401C68.6282 102.401 68.6162 102.401 68.6042 102.401C68.5923 102.401 68.5803 102.401 68.5684 102.401C68.5564 102.401 68.5444 102.401 68.5325 102.401C68.5205 102.401 68.5085 102.401 68.4966 102.401C68.4846 102.401 68.4726 102.401 68.4606 102.401C68.4487 102.401 68.4367 102.401 68.4247 102.401C68.4127 102.401 68.4007 102.401 68.3887 102.401C68.3767 102.401 68.3647 102.401 68.3527 102.401C68.3407 102.401 68.3287 102.401 68.3167 102.401C68.3047 102.401 68.2927 102.401 68.2807 102.401C68.2687 102.401 68.2567 102.401 68.2447 102.401C68.2327 102.401 68.2206 102.401 68.2086 102.401C68.1966 102.401 68.1846 102.401 68.1725 102.401C68.1605 102.401 68.1485 102.401 68.1365 102.401C68.1244 102.401 68.1124 102.401 68.1004 102.401C68.0883 102.401 68.0763 102.401 68.0643 102.401C68.0522 102.401 68.0402 102.401 68.0281 102.401C68.0161 102.401 68.004 102.401 67.992 102.401C67.9799 102.401 67.9679 102.401 67.9558 102.401C67.9438 102.401 67.9317 102.401 67.9197 102.401C67.9076 102.401 67.8956 102.401 67.8835 102.401C67.8715 102.401 67.8594 102.401 67.8473 102.401C67.8353 102.401 67.8232 102.401 67.8111 102.401C67.7991 102.401 67.787 102.401 67.7749 102.401C67.7629 102.401 67.7508 102.401 67.7387 102.401C67.7266 102.401 67.7146 102.401 67.7025 102.401C67.6904 102.401 67.6783 102.401 67.6663 102.401C67.6542 102.401 67.6421 102.401 67.63 102.401C67.6179 102.401 67.6059 102.401 67.5938 102.401C67.5817 102.401 67.5696 102.401 67.5575 102.401C67.5454 102.401 67.5333 102.401 67.5212 102.401C67.5092 102.401 67.4971 102.401 67.485 102.401C67.4729 102.401 67.4608 102.401 67.4487 102.401C67.4366 102.401 67.4245 102.401 67.4124 102.401C67.4003 102.401 67.3882 102.401 67.3761 102.401C67.364 102.401 67.3519 102.401 67.3398 102.401C67.3278 102.401 67.3157 102.401 67.3036 102.401C67.2915 102.401 67.2794 102.401 67.2673 102.401C67.2552 102.401 67.2431 102.401 67.231 102.401C67.2188 102.401 67.2067 102.401 67.1946 102.401C67.1825 102.401 67.1704 102.401 67.1583 102.401C67.1462 102.401 67.1341 102.401 67.122 102.401C67.1099 102.401 67.0978 102.401 67.0857 102.401C67.0736 102.401 67.0615 102.401 67.0494 102.401C67.0373 102.401 67.0252 102.401 67.0131 102.401C67.001 102.401 66.9889 102.401 66.9768 102.401C66.9647 102.401 66.9526 102.401 66.9405 102.401C66.9284 102.401 66.9163 102.401 66.9042 102.401C66.8921 102.401 66.88 102.401 66.8679 102.401C66.8558 102.401 66.8437 102.401 66.8316 102.401C66.8195 102.401 66.8074 102.401 66.7953 102.401C66.7832 102.401 66.7711 102.401 66.759 102.401C66.7469 102.401 66.7348 102.401 66.7227 102.401C66.7106 102.401 66.6985 102.401 66.6864 102.401C66.6743 102.401 66.6622 102.401 66.6501 102.401C66.638 102.401 66.6259 102.401 66.6138 102.401C66.6017 102.401 66.5897 102.401 66.5776 102.401C66.5655 102.401 66.5534 102.401 66.5413 102.401C66.5292 102.401 66.5171 102.401 66.505 102.401C66.493 102.401 66.4809 102.401 66.4688 102.401C66.4567 102.401 66.4446 102.401 66.4325 102.401C66.4205 102.401 66.4084 102.401 66.3963 102.401C66.3842 102.401 66.3721 102.401 66.3601 102.401C66.348 102.401 66.3359 102.401 66.3238 102.401C66.3118 102.401 66.2997 102.401 66.2876 102.401C66.2756 102.401 66.2635 102.401 66.2514 102.401C66.2394 102.401 66.2273 102.401 66.2152 102.401C66.2032 102.401 66.1911 102.401 66.179 102.401C66.167 102.401 66.1549 102.401 66.1429 102.401C66.1308 102.401 66.1188 102.401 66.1067 102.401C66.0947 102.401 66.0826 102.401 66.0706 102.401C66.0585 102.401 66.0465 102.401 66.0344 102.401C66.0224 102.401 66.0103 102.401 65.9983 102.401C65.9863 102.401 65.9742 102.401 65.9622 102.401C65.9502 102.401 65.9381 102.401 65.9261 102.401C65.9141 102.401 65.9021 102.401 65.89 102.401C65.878 102.401 65.866 102.401 65.854 102.401C65.8419 102.401 65.8299 102.401 65.8179 102.401C65.8059 102.401 65.7939 102.401 65.7819 102.401C65.7699 102.401 65.7579 102.401 65.7459 102.401C65.7339 102.401 65.7219 102.401 65.7099 102.401C65.6979 102.401 65.6859 102.401 65.6739 102.401C65.6619 102.401 65.6499 102.401 65.6379 102.401C65.6259 102.401 65.6139 102.401 65.602 102.401C65.59 102.401 65.578 102.401 65.566 102.401C65.5541 102.401 65.5421 102.401 65.5301 102.401C65.5182 102.401 65.5062 102.401 65.4942 102.401C65.4823 102.401 65.4703 102.401 65.4584 102.401C65.4464 102.401 65.4345 102.401 65.4225 102.401C65.4106 102.401 65.3986 102.401 65.3867 102.401C65.3747 102.401 65.3628 102.401 65.3509 102.401C65.3389 102.401 65.327 102.401 65.3151 102.401C65.3032 102.401 65.2912 102.401 65.2793 102.401C65.2674 102.401 65.2555 102.401 65.2436 102.401C65.2317 102.401 65.2198 102.401 65.2079 102.401C65.196 102.401 65.1841 102.401 65.1722 102.401C65.1603 102.401 65.1484 102.401 65.1365 102.401C65.1246 102.401 65.1127 102.401 65.1009 102.401C65.089 102.401 65.0771 102.401 65.0652 102.401C65.0534 102.401 65.0415 102.401 65.0297 102.401C65.0178 102.401 65.0059 102.401 64.9941 102.401C64.9822 102.401 64.9704 102.401 64.9585 102.401C64.9467 102.401 64.9349 102.401 64.923 102.401C64.9112 102.401 64.8994 102.401 64.8876 102.401C64.8757 102.401 64.8639 102.401 64.8521 102.401C64.8403 102.401 64.8285 102.401 64.8167 102.401C64.8049 102.401 64.7931 102.401 64.7813 102.401C64.7695 102.401 64.7577 102.401 64.7459 102.401C64.7341 102.401 64.7223 102.401 64.7106 102.401C64.6988 102.401 64.687 102.401 64.6753 102.401C64.6635 102.401 64.6517 102.401 64.64 102.401C64.6282 102.401 64.6165 102.401 64.6047 102.401C64.593 102.401 64.5812 102.401 64.5695 102.401C64.5578 102.401 64.5461 102.401 64.5343 102.401C64.5226 102.401 64.5109 102.401 64.4992 102.401C64.4875 102.401 64.4758 102.401 64.4641 102.401C64.4524 102.401 64.4407 102.401 64.429 102.401C64.4173 102.401 64.4056 102.401 64.3939 102.401C64.3823 102.401 64.3706 102.401 64.3589 102.401C64.3473 102.401 64.3356 102.401 64.324 102.401C64.3123 102.401 64.3007 102.401 64.289 102.401C64.2774 102.401 64.2657 102.401 64.2541 102.401C64.2425 102.401 64.2309 102.401 64.2192 102.401C64.2076 102.401 64.196 102.401 64.1844 102.401C64.1728 102.401 64.1612 102.401 64.1496 102.401C64.138 102.401 64.1264 102.401 64.1149 102.401C64.1033 102.401 64.0917 102.401 64.0801 102.401C64.0686 102.401 64.057 102.401 64.0455 102.401C64.0339 102.401 64.0224 102.401 64.0108 102.401C63.9993 102.401 63.9877 102.401 63.9762 102.401C63.9647 102.401 63.9532 102.401 63.9417 102.401C63.9301 102.401 63.9186 102.401 63.9071 102.401C63.8956 102.401 63.8842 102.401 63.8727 102.401C63.8612 102.401 63.8497 102.401 63.8382 102.401C63.8268 102.401 63.8153 102.401 63.8038 102.401C63.7924 102.401 63.7809 102.401 63.7695 102.401C63.758 102.401 63.7466 102.401 63.7352 102.401C63.7238 102.401 63.7123 102.401 63.7009 102.401C63.6895 102.401 63.6781 102.401 63.6667 102.401C63.6553 102.401 63.6439 102.401 63.6325 102.401C63.6211 102.401 63.6098 102.401 63.5984 102.401C63.587 102.401 63.5757 102.401 63.5643 102.401C63.553 102.401 63.5416 102.401 63.5303 102.401C63.5189 102.401 63.5076 102.401 63.4963 102.401C63.485 102.401 63.4737 102.401 63.4623 102.401C63.451 102.401 63.4397 102.401 63.4285 102.401C63.4172 102.401 63.4059 102.401 63.3946 102.401C63.3833 102.401 63.3721 102.401 63.3608 102.401C63.3495 102.401 63.3383 102.401 63.3271 102.401C63.3158 102.401 63.3046 102.401 63.2934 102.401C63.2821 102.401 63.2709 102.401 63.2597 102.401C63.2485 102.401 63.2373 102.401 63.2261 102.401C63.2149 102.401 63.2037 102.401 63.1926 102.401C63.1814 102.401 63.1702 102.401 63.1591 102.401C63.1479 102.401 63.1367 102.401 63.1256 102.401C63.1145 102.401 63.1033 102.401 63.0922 102.401C63.0811 102.401 63.07 102.401 63.0589 102.401C63.0478 102.401 63.0367 102.401 63.0256 102.401C63.0145 102.401 63.0034 102.401 62.9923 102.401C62.9813 102.401 62.9702 102.401 62.9592 102.401C62.9481 102.401 62.9371 102.401 62.926 102.401C62.915 102.401 62.904 102.401 62.893 102.401C62.882 102.401 62.8709 102.401 62.86 102.401C62.849 102.401 62.838 102.401 62.827 102.401C62.816 102.401 62.805 102.401 62.7941 102.401C62.7831 102.401 62.7722 102.401 62.7612 102.401C62.7503 102.401 62.7394 102.401 62.7285 102.401C62.7175 102.401 62.7066 102.401 62.6957 102.401C62.6848 102.401 62.6739 102.401 62.663 102.401C62.6522 102.401 62.6413 102.401 62.6304 102.401C62.6196 102.401 62.6087 102.401 62.5979 102.401C62.587 102.401 62.5762 102.401 62.5654 102.401C62.5546 102.401 62.5438 102.401 62.533 102.401C62.5221 102.401 62.5114 102.401 62.5006 102.401C62.4898 102.401 62.479 102.401 62.4683 102.401C62.4575 102.401 62.4468 102.401 62.436 102.401C62.4253 102.401 62.4145 102.401 62.4038 102.401C62.3931 102.401 62.3824 102.401 62.3717 102.401C62.361 102.401 62.3503 102.401 62.3396 102.401C62.329 102.401 62.3183 102.401 62.3076 102.401C62.297 102.401 62.2863 102.401 62.2757 102.401C62.2651 102.401 62.2544 102.401 62.2438 102.401C62.2332 102.401 62.2226 102.401 62.212 102.401C62.2014 102.401 62.1909 102.401 62.1803 102.401C62.1697 102.401 62.1592 102.401 62.1486 102.401C62.1381 102.401 62.1275 102.401 62.117 102.401C62.1065 102.401 62.096 102.401 62.0855 102.401C62.075 102.401 62.0645 102.401 62.054 102.401C62.0435 102.401 62.033 102.401 62.0226 102.401C62.0121 102.401 62.0017 102.401 61.9912 102.401C61.9808 102.401 61.9704 102.401 61.96 102.401C61.9496 102.401 61.9392 102.401 61.9288 102.401C61.9184 102.401 61.908 102.401 61.8976 102.401C61.8873 102.401 61.8769 102.401 61.8666 102.401C61.8562 102.401 61.8459 102.401 61.8356 102.401C61.8253 102.401 61.815 102.401 61.8047 102.401C61.7944 102.401 61.7841 102.401 61.7738 102.401C61.7636 102.401 61.7533 102.401 61.7431 102.401C61.7328 102.401 61.7226 102.401 61.7124 102.401C61.7021 102.401 61.6919 102.401 61.6817 102.401C61.6715 102.401 61.6613 102.401 61.6512 102.401C61.641 102.401 61.6308 102.401 61.6207 102.401C61.6105 102.401 61.6004 102.401 61.5903 102.401C61.5802 102.401 61.57 102.401 61.5599 102.401C61.5499 102.401 61.5398 102.401 61.5297 102.401C61.5196 102.401 61.5096 102.401 61.4995 102.401C61.4895 102.401 61.4794 102.401 61.4694 102.401C61.4594 102.401 61.4494 102.401 61.4394 102.401C61.4294 102.401 61.4194 102.401 61.4094 102.401C61.3995 102.401 61.3895 102.401 61.3796 102.401C61.3696 102.401 61.3597 102.401 61.3498 102.401C61.3398 102.401 61.3299 102.401 61.32 102.401C61.3102 102.401 61.3003 102.401 61.2904 102.401C61.2805 102.401 61.2707 102.401 61.2609 102.401C61.251 102.401 61.2412 102.401 61.2314 102.401C61.2216 102.401 61.2118 102.401 61.202 102.401C61.1922 102.401 61.1824 102.401 61.1727 102.401C61.1629 102.401 61.1532 102.401 61.1434 102.401C61.1337 102.401 61.124 102.401 61.1143 102.401C61.1046 102.401 61.0949 102.401 61.0852 102.401C61.0755 102.401 61.0659 102.401 61.0562 102.401C61.0466 102.401 61.0369 102.401 61.0273 102.401C61.0177 102.401 61.0081 102.401 60.9985 102.401C60.9889 102.401 60.9793 102.401 60.9698 102.401C60.9602 102.401 60.9506 102.401 60.9411 102.401C60.9316 102.401 60.9221 102.401 60.9125 102.401C60.903 102.401 60.8935 102.401 60.8841 102.401C60.8746 102.401 60.8651 102.401 60.8557 102.401C60.8462 102.401 60.8368 102.401 60.8274 102.401C60.818 102.401 60.8085 102.401 60.7992 102.401C60.7898 102.401 60.7804 102.401 60.771 102.401C60.7617 102.401 60.7523 102.401 60.743 102.401C60.7336 102.401 60.7243 102.401 60.715 102.401C60.7057 102.401 60.6964 102.401 60.6872 102.401C60.6779 102.401 60.6686 102.401 60.6594 102.401C60.6501 102.401 60.6409 102.401 60.6317 102.401C60.6225 102.401 60.6133 102.401 60.6041 102.401C60.5949 102.401 60.5858 102.401 60.5766 102.401C60.5674 102.401 60.5583 102.401 60.5492 102.401C60.5401 102.401 60.531 102.401 60.5219 102.401C60.5128 102.401 60.5037 102.401 60.4946 102.401C60.4856 102.401 60.4765 102.401 60.4675 102.401C60.4585 102.401 60.4495 102.401 60.4405 102.401C60.4315 102.401 60.4225 102.401 60.4135 102.401C60.4045 102.401 60.3956 102.401 60.3867 102.401V105.401C60.3956 105.401 60.4045 105.401 60.4135 105.401C60.4225 105.401 60.4315 105.401 60.4405 105.401C60.4495 105.401 60.4585 105.401 60.4675 105.401C60.4765 105.401 60.4856 105.401 60.4946 105.401C60.5037 105.401 60.5128 105.401 60.5219 105.401C60.531 105.401 60.5401 105.401 60.5492 105.401C60.5583 105.401 60.5674 105.401 60.5766 105.401C60.5858 105.401 60.5949 105.401 60.6041 105.401C60.6133 105.401 60.6225 105.401 60.6317 105.401C60.6409 105.401 60.6501 105.401 60.6594 105.401C60.6686 105.401 60.6779 105.401 60.6872 105.401C60.6964 105.401 60.7057 105.401 60.715 105.401C60.7243 105.401 60.7336 105.401 60.743 105.401C60.7523 105.401 60.7617 105.401 60.771 105.401C60.7804 105.401 60.7898 105.401 60.7992 105.401C60.8085 105.401 60.818 105.401 60.8274 105.401C60.8368 105.401 60.8462 105.401 60.8557 105.401C60.8651 105.401 60.8746 105.401 60.8841 105.401C60.8935 105.401 60.903 105.401 60.9125 105.401C60.9221 105.401 60.9316 105.401 60.9411 105.401C60.9506 105.401 60.9602 105.401 60.9698 105.401C60.9793 105.401 60.9889 105.401 60.9985 105.401C61.0081 105.401 61.0177 105.401 61.0273 105.401C61.0369 105.401 61.0466 105.401 61.0562 105.401C61.0659 105.401 61.0755 105.401 61.0852 105.401C61.0949 105.401 61.1046 105.401 61.1143 105.401C61.124 105.401 61.1337 105.401 61.1434 105.401C61.1532 105.401 61.1629 105.401 61.1727 105.401C61.1824 105.401 61.1922 105.401 61.202 105.401C61.2118 105.401 61.2216 105.401 61.2314 105.401C61.2412 105.401 61.251 105.401 61.2609 105.401C61.2707 105.401 61.2805 105.401 61.2904 105.401C61.3003 105.401 61.3102 105.401 61.32 105.401C61.3299 105.401 61.3398 105.401 61.3498 105.401C61.3597 105.401 61.3696 105.401 61.3796 105.401C61.3895 105.401 61.3995 105.401 61.4094 105.401C61.4194 105.401 61.4294 105.401 61.4394 105.401C61.4494 105.401 61.4594 105.401 61.4694 105.401C61.4794 105.401 61.4895 105.401 61.4995 105.401C61.5096 105.401 61.5196 105.401 61.5297 105.401C61.5398 105.401 61.5499 105.401 61.5599 105.401C61.57 105.401 61.5802 105.401 61.5903 105.401C61.6004 105.401 61.6105 105.401 61.6207 105.401C61.6308 105.401 61.641 105.401 61.6512 105.401C61.6613 105.401 61.6715 105.401 61.6817 105.401C61.6919 105.401 61.7021 105.401 61.7124 105.401C61.7226 105.401 61.7328 105.401 61.7431 105.401C61.7533 105.401 61.7636 105.401 61.7738 105.401C61.7841 105.401 61.7944 105.401 61.8047 105.401C61.815 105.401 61.8253 105.401 61.8356 105.401C61.8459 105.401 61.8562 105.401 61.8666 105.401C61.8769 105.401 61.8873 105.401 61.8976 105.401C61.908 105.401 61.9184 105.401 61.9288 105.401C61.9392 105.401 61.9496 105.401 61.96 105.401C61.9704 105.401 61.9808 105.401 61.9912 105.401C62.0017 105.401 62.0121 105.401 62.0226 105.401C62.033 105.401 62.0435 105.401 62.054 105.401C62.0645 105.401 62.075 105.401 62.0855 105.401C62.096 105.401 62.1065 105.401 62.117 105.401C62.1275 105.401 62.1381 105.401 62.1486 105.401C62.1592 105.401 62.1697 105.401 62.1803 105.401C62.1909 105.401 62.2014 105.401 62.212 105.401C62.2226 105.401 62.2332 105.401 62.2438 105.401C62.2544 105.401 62.2651 105.401 62.2757 105.401C62.2863 105.401 62.297 105.401 62.3076 105.401C62.3183 105.401 62.329 105.401 62.3396 105.401C62.3503 105.401 62.361 105.401 62.3717 105.401C62.3824 105.401 62.3931 105.401 62.4038 105.401C62.4145 105.401 62.4253 105.401 62.436 105.401C62.4468 105.401 62.4575 105.401 62.4683 105.401C62.479 105.401 62.4898 105.401 62.5006 105.401C62.5114 105.401 62.5221 105.401 62.533 105.401C62.5438 105.401 62.5546 105.401 62.5654 105.401C62.5762 105.401 62.587 105.401 62.5979 105.401C62.6087 105.401 62.6196 105.401 62.6304 105.401C62.6413 105.401 62.6522 105.401 62.663 105.401C62.6739 105.401 62.6848 105.401 62.6957 105.401C62.7066 105.401 62.7175 105.401 62.7285 105.401C62.7394 105.401 62.7503 105.401 62.7612 105.401C62.7722 105.401 62.7831 105.401 62.7941 105.401C62.805 105.401 62.816 105.401 62.827 105.401C62.838 105.401 62.849 105.401 62.86 105.401C62.8709 105.401 62.882 105.401 62.893 105.401C62.904 105.401 62.915 105.401 62.926 105.401C62.9371 105.401 62.9481 105.401 62.9592 105.401C62.9702 105.401 62.9813 105.401 62.9923 105.401C63.0034 105.401 63.0145 105.401 63.0256 105.401C63.0367 105.401 63.0478 105.401 63.0589 105.401C63.07 105.401 63.0811 105.401 63.0922 105.401C63.1033 105.401 63.1145 105.401 63.1256 105.401C63.1367 105.401 63.1479 105.401 63.1591 105.401C63.1702 105.401 63.1814 105.401 63.1926 105.401C63.2037 105.401 63.2149 105.401 63.2261 105.401C63.2373 105.401 63.2485 105.401 63.2597 105.401C63.2709 105.401 63.2821 105.401 63.2934 105.401C63.3046 105.401 63.3158 105.401 63.3271 105.401C63.3383 105.401 63.3495 105.401 63.3608 105.401C63.3721 105.401 63.3833 105.401 63.3946 105.401C63.4059 105.401 63.4172 105.401 63.4285 105.401C63.4397 105.401 63.451 105.401 63.4623 105.401C63.4737 105.401 63.485 105.401 63.4963 105.401C63.5076 105.401 63.5189 105.401 63.5303 105.401C63.5416 105.401 63.553 105.401 63.5643 105.401C63.5757 105.401 63.587 105.401 63.5984 105.401C63.6098 105.401 63.6211 105.401 63.6325 105.401C63.6439 105.401 63.6553 105.401 63.6667 105.401C63.6781 105.401 63.6895 105.401 63.7009 105.401C63.7123 105.401 63.7238 105.401 63.7352 105.401C63.7466 105.401 63.758 105.401 63.7695 105.401C63.7809 105.401 63.7924 105.401 63.8038 105.401C63.8153 105.401 63.8268 105.401 63.8382 105.401C63.8497 105.401 63.8612 105.401 63.8727 105.401C63.8842 105.401 63.8956 105.401 63.9071 105.401C63.9186 105.401 63.9301 105.401 63.9417 105.401C63.9532 105.401 63.9647 105.401 63.9762 105.401C63.9877 105.401 63.9993 105.401 64.0108 105.401C64.0224 105.401 64.0339 105.401 64.0455 105.401C64.057 105.401 64.0686 105.401 64.0801 105.401C64.0917 105.401 64.1033 105.401 64.1149 105.401C64.1264 105.401 64.138 105.401 64.1496 105.401C64.1612 105.401 64.1728 105.401 64.1844 105.401C64.196 105.401 64.2076 105.401 64.2192 105.401C64.2309 105.401 64.2425 105.401 64.2541 105.401C64.2657 105.401 64.2774 105.401 64.289 105.401C64.3007 105.401 64.3123 105.401 64.324 105.401C64.3356 105.401 64.3473 105.401 64.3589 105.401C64.3706 105.401 64.3823 105.401 64.3939 105.401C64.4056 105.401 64.4173 105.401 64.429 105.401C64.4407 105.401 64.4524 105.401 64.4641 105.401C64.4758 105.401 64.4875 105.401 64.4992 105.401C64.5109 105.401 64.5226 105.401 64.5343 105.401C64.5461 105.401 64.5578 105.401 64.5695 105.401C64.5812 105.401 64.593 105.401 64.6047 105.401C64.6165 105.401 64.6282 105.401 64.64 105.401C64.6517 105.401 64.6635 105.401 64.6753 105.401C64.687 105.401 64.6988 105.401 64.7106 105.401C64.7223 105.401 64.7341 105.401 64.7459 105.401C64.7577 105.401 64.7695 105.401 64.7813 105.401C64.7931 105.401 64.8049 105.401 64.8167 105.401C64.8285 105.401 64.8403 105.401 64.8521 105.401C64.8639 105.401 64.8757 105.401 64.8876 105.401C64.8994 105.401 64.9112 105.401 64.923 105.401C64.9349 105.401 64.9467 105.401 64.9585 105.401C64.9704 105.401 64.9822 105.401 64.9941 105.401C65.0059 105.401 65.0178 105.401 65.0297 105.401C65.0415 105.401 65.0534 105.401 65.0652 105.401C65.0771 105.401 65.089 105.401 65.1009 105.401C65.1127 105.401 65.1246 105.401 65.1365 105.401C65.1484 105.401 65.1603 105.401 65.1722 105.401C65.1841 105.401 65.196 105.401 65.2079 105.401C65.2198 105.401 65.2317 105.401 65.2436 105.401C65.2555 105.401 65.2674 105.401 65.2793 105.401C65.2912 105.401 65.3032 105.401 65.3151 105.401C65.327 105.401 65.3389 105.401 65.3509 105.401C65.3628 105.401 65.3747 105.401 65.3867 105.401C65.3986 105.401 65.4106 105.401 65.4225 105.401C65.4345 105.401 65.4464 105.401 65.4584 105.401C65.4703 105.401 65.4823 105.401 65.4942 105.401C65.5062 105.401 65.5182 105.401 65.5301 105.401C65.5421 105.401 65.5541 105.401 65.566 105.401C65.578 105.401 65.59 105.401 65.602 105.401C65.6139 105.401 65.6259 105.401 65.6379 105.401C65.6499 105.401 65.6619 105.401 65.6739 105.401C65.6859 105.401 65.6979 105.401 65.7099 105.401C65.7219 105.401 65.7339 105.401 65.7459 105.401C65.7579 105.401 65.7699 105.401 65.7819 105.401C65.7939 105.401 65.8059 105.401 65.8179 105.401C65.8299 105.401 65.8419 105.401 65.854 105.401C65.866 105.401 65.878 105.401 65.89 105.401C65.9021 105.401 65.9141 105.401 65.9261 105.401C65.9381 105.401 65.9502 105.401 65.9622 105.401C65.9742 105.401 65.9863 105.401 65.9983 105.401C66.0103 105.401 66.0224 105.401 66.0344 105.401C66.0465 105.401 66.0585 105.401 66.0706 105.401C66.0826 105.401 66.0947 105.401 66.1067 105.401C66.1188 105.401 66.1308 105.401 66.1429 105.401C66.1549 105.401 66.167 105.401 66.179 105.401C66.1911 105.401 66.2032 105.401 66.2152 105.401C66.2273 105.401 66.2394 105.401 66.2514 105.401C66.2635 105.401 66.2756 105.401 66.2876 105.401C66.2997 105.401 66.3118 105.401 66.3238 105.401C66.3359 105.401 66.348 105.401 66.3601 105.401C66.3721 105.401 66.3842 105.401 66.3963 105.401C66.4084 105.401 66.4205 105.401 66.4325 105.401C66.4446 105.401 66.4567 105.401 66.4688 105.401C66.4809 105.401 66.493 105.401 66.505 105.401C66.5171 105.401 66.5292 105.401 66.5413 105.401C66.5534 105.401 66.5655 105.401 66.5776 105.401C66.5897 105.401 66.6017 105.401 66.6138 105.401C66.6259 105.401 66.638 105.401 66.6501 105.401C66.6622 105.401 66.6743 105.401 66.6864 105.401C66.6985 105.401 66.7106 105.401 66.7227 105.401C66.7348 105.401 66.7469 105.401 66.759 105.401C66.7711 105.401 66.7832 105.401 66.7953 105.401C66.8074 105.401 66.8195 105.401 66.8316 105.401C66.8437 105.401 66.8558 105.401 66.8679 105.401C66.88 105.401 66.8921 105.401 66.9042 105.401C66.9163 105.401 66.9284 105.401 66.9405 105.401C66.9526 105.401 66.9647 105.401 66.9768 105.401C66.9889 105.401 67.001 105.401 67.0131 105.401C67.0252 105.401 67.0373 105.401 67.0494 105.401C67.0615 105.401 67.0736 105.401 67.0857 105.401C67.0978 105.401 67.1099 105.401 67.122 105.401C67.1341 105.401 67.1462 105.401 67.1583 105.401C67.1704 105.401 67.1825 105.401 67.1946 105.401C67.2067 105.401 67.2188 105.401 67.231 105.401C67.2431 105.401 67.2552 105.401 67.2673 105.401C67.2794 105.401 67.2915 105.401 67.3036 105.401C67.3157 105.401 67.3278 105.401 67.3398 105.401C67.3519 105.401 67.364 105.401 67.3761 105.401C67.3882 105.401 67.4003 105.401 67.4124 105.401C67.4245 105.401 67.4366 105.401 67.4487 105.401C67.4608 105.401 67.4729 105.401 67.485 105.401C67.4971 105.401 67.5092 105.401 67.5212 105.401C67.5333 105.401 67.5454 105.401 67.5575 105.401C67.5696 105.401 67.5817 105.401 67.5938 105.401C67.6059 105.401 67.6179 105.401 67.63 105.401C67.6421 105.401 67.6542 105.401 67.6663 105.401C67.6783 105.401 67.6904 105.401 67.7025 105.401C67.7146 105.401 67.7266 105.401 67.7387 105.401C67.7508 105.401 67.7629 105.401 67.7749 105.401C67.787 105.401 67.7991 105.401 67.8111 105.401C67.8232 105.401 67.8353 105.401 67.8473 105.401C67.8594 105.401 67.8715 105.401 67.8835 105.401C67.8956 105.401 67.9076 105.401 67.9197 105.401C67.9317 105.401 67.9438 105.401 67.9558 105.401C67.9679 105.401 67.9799 105.401 67.992 105.401C68.004 105.401 68.0161 105.401 68.0281 105.401C68.0402 105.401 68.0522 105.401 68.0643 105.401C68.0763 105.401 68.0883 105.401 68.1004 105.401C68.1124 105.401 68.1244 105.401 68.1365 105.401C68.1485 105.401 68.1605 105.401 68.1725 105.401C68.1846 105.401 68.1966 105.401 68.2086 105.401C68.2206 105.401 68.2327 105.401 68.2447 105.401C68.2567 105.401 68.2687 105.401 68.2807 105.401C68.2927 105.401 68.3047 105.401 68.3167 105.401C68.3287 105.401 68.3407 105.401 68.3527 105.401C68.3647 105.401 68.3767 105.401 68.3887 105.401C68.4007 105.401 68.4127 105.401 68.4247 105.401C68.4367 105.401 68.4487 105.401 68.4606 105.401C68.4726 105.401 68.4846 105.401 68.4966 105.401C68.5085 105.401 68.5205 105.401 68.5325 105.401C68.5444 105.401 68.5564 105.401 68.5684 105.401C68.5803 105.401 68.5923 105.401 68.6042 105.401C68.6162 105.401 68.6282 105.401 68.6401 105.401C68.652 105.401 68.664 105.401 68.6759 105.401C68.6879 105.401 68.6998 105.401 68.7117 105.401C68.7237 105.401 68.7356 105.401 68.7475 105.401C68.7595 105.401 68.7714 105.401 68.7833 105.401C68.7952 105.401 68.8071 105.401 68.819 105.401C68.831 105.401 68.8429 105.401 68.8548 105.401C68.8667 105.401 68.8786 105.401 68.8905 105.401C68.9024 105.401 68.9142 105.401 68.9261 105.401C68.938 105.401 68.9499 105.401 68.9618 105.401C68.9737 105.401 68.9855 105.401 68.9974 105.401C69.0093 105.401 69.0211 105.401 69.033 105.401C69.0449 105.401 69.0567 105.401 69.0686 105.401C69.0804 105.401 69.0923 105.401 69.1041 105.401C69.116 105.401 69.1278 105.401 69.1396 105.401C69.1515 105.401 69.1633 105.401 69.1751 105.401C69.1869 105.401 69.1988 105.401 69.2106 105.401C69.2224 105.401 69.2342 105.401 69.246 105.401C69.2578 105.401 69.2696 105.401 69.2814 105.401C69.2932 105.401 69.305 105.401 69.3168 105.401C69.3286 105.401 69.3403 105.401 69.3521 105.401C69.3639 105.401 69.3757 105.401 69.3874 105.401C69.3992 105.401 69.411 105.401 69.4227 105.401C69.4345 105.401 69.4462 105.401 69.458 105.401C69.4697 105.401 69.4815 105.401 69.4932 105.401C69.5049 105.401 69.5167 105.401 69.5284 105.401C69.5401 105.401 69.5518 105.401 69.5635 105.401C69.5752 105.401 69.587 105.401 69.5987 105.401C69.6104 105.401 69.622 105.401 69.6337 105.401C69.6454 105.401 69.6571 105.401 69.6688 105.401C69.6805 105.401 69.6921 105.401 69.7038 105.401C69.7155 105.401 69.7271 105.401 69.7388 105.401C69.7505 105.401 69.7621 105.401 69.7737 105.401C69.7854 105.401 69.797 105.401 69.8087 105.401C69.8203 105.401 69.8319 105.401 69.8435 105.401C69.8551 105.401 69.8668 105.401 69.8784 105.401C69.89 105.401 69.9016 105.401 69.9132 105.401C69.9248 105.401 69.9363 105.401 69.9479 105.401C69.9595 105.401 69.9711 105.401 69.9827 105.401C69.9942 105.401 70.0058 105.401 70.0173 105.401C70.0289 105.401 70.0404 105.401 70.052 105.401C70.0635 105.401 70.0751 105.401 70.0866 105.401C70.0981 105.401 70.1096 105.401 70.1211 105.401C70.1327 105.401 70.1442 105.401 70.1557 105.401C70.1672 105.401 70.1787 105.401 70.1902 105.401C70.2016 105.401 70.2131 105.401 70.2246 105.401C70.2361 105.401 70.2475 105.401 70.259 105.401C70.2705 105.401 70.2819 105.401 70.2934 105.401C70.3048 105.401 70.3162 105.401 70.3277 105.401C70.3391 105.401 70.3505 105.401 70.3619 105.401C70.3734 105.401 70.3848 105.401 70.3962 105.401C70.4076 105.401 70.419 105.401 70.4303 105.401C70.4417 105.401 70.4531 105.401 70.4645 105.401C70.4758 105.401 70.4872 105.401 70.4986 105.401C70.5099 105.401 70.5213 105.401 70.5326 105.401C70.544 105.401 70.5553 105.401 70.5666 105.401C70.5779 105.401 70.5892 105.401 70.6006 105.401C70.6119 105.401 70.6232 105.401 70.6345 105.401C70.6458 105.401 70.657 105.401 70.6683 105.401C70.6796 105.401 70.6909 105.401 70.7021 105.401C70.7134 105.401 70.7246 105.401 70.7359 105.401C70.7471 105.401 70.7584 105.401 70.7696 105.401C70.7808 105.401 70.792 105.401 70.8032 105.401C70.8145 105.401 70.8257 105.401 70.8369 105.401C70.8481 105.401 70.8592 105.401 70.8704 105.401C70.8816 105.401 70.8928 105.401 70.9039 105.401C70.9151 105.401 70.9262 105.401 70.9374 105.401C70.9485 105.401 70.9597 105.401 70.9708 105.401C70.9819 105.401 70.993 105.401 71.0041 105.401C71.0152 105.401 71.0263 105.401 71.0374 105.401C71.0485 105.401 71.0596 105.401 71.0707 105.401C71.0817 105.401 71.0928 105.401 71.1039 105.401C71.1149 105.401 71.126 105.401 71.137 105.401C71.148 105.401 71.1591 105.401 71.1701 105.401C71.1811 105.401 71.1921 105.401 71.2031 105.401C71.2141 105.401 71.2251 105.401 71.2361 105.401C71.247 105.401 71.258 105.401 71.269 105.401C71.2799 105.401 71.2909 105.401 71.3018 105.401C71.3128 105.401 71.3237 105.401 71.3346 105.401C71.3456 105.401 71.3565 105.401 71.3674 105.401C71.3783 105.401 71.3892 105.401 71.4001 105.401C71.4109 105.401 71.4218 105.401 71.4327 105.401C71.4435 105.401 71.4544 105.401 71.4652 105.401C71.4761 105.401 71.4869 105.401 71.4977 105.401C71.5086 105.401 71.5194 105.401 71.5302 105.401C71.541 105.401 71.5518 105.401 71.5626 105.401C71.5734 105.401 71.5841 105.401 71.5949 105.401C71.6057 105.401 71.6164 105.401 71.6272 105.401C71.6379 105.401 71.6486 105.401 71.6594 105.401C71.6701 105.401 71.6808 105.401 71.6915 105.401C71.7022 105.401 71.7129 105.401 71.7236 105.401C71.7342 105.401 71.7449 105.401 71.7556 105.401C71.7662 105.401 71.7769 105.401 71.7875 105.401C71.7982 105.401 71.8088 105.401 71.8194 105.401C71.83 105.401 71.8406 105.401 71.8512 105.401C71.8618 105.401 71.8724 105.401 71.883 105.401C71.8935 105.401 71.9041 105.401 71.9146 105.401C71.9252 105.401 71.9357 105.401 71.9463 105.401C71.9568 105.401 71.9673 105.401 71.9778 105.401C71.9883 105.401 71.9988 105.401 72.0093 105.401C72.0198 105.401 72.0303 105.401 72.0407 105.401C72.0512 105.401 72.0616 105.401 72.0721 105.401C72.0825 105.401 72.0929 105.401 72.1033 105.401C72.1138 105.401 72.1242 105.401 72.1346 105.401C72.145 105.401 72.1553 105.401 72.1657 105.401C72.1761 105.401 72.1864 105.401 72.1968 105.401C72.2071 105.401 72.2174 105.401 72.2278 105.401C72.2381 105.401 72.2484 105.401 72.2587 105.401C72.269 105.401 72.2793 105.401 72.2896 105.401C72.2998 105.401 72.3101 105.401 72.3203 105.401C72.3306 105.401 72.3408 105.401 72.3511 105.401C72.3613 105.401 72.3715 105.401 72.3817 105.401C72.3919 105.401 72.4021 105.401 72.4123 105.401C72.4224 105.401 72.4326 105.401 72.4428 105.401C72.4529 105.401 72.463 105.401 72.4732 105.401C72.4833 105.401 72.4934 105.401 72.5035 105.401C72.5136 105.401 72.5237 105.401 72.5338 105.401C72.5439 105.401 72.5539 105.401 72.564 105.401C72.574 105.401 72.5841 105.401 72.5941 105.401C72.6041 105.401 72.6141 105.401 72.6241 105.401C72.6341 105.401 72.6441 105.401 72.6541 105.401C72.6641 105.401 72.674 105.401 72.684 105.401C72.6939 105.401 72.7039 105.401 72.7138 105.401C72.7237 105.401 72.7336 105.401 72.7435 105.401C72.7534 105.401 72.7633 105.401 72.7732 105.401C72.783 105.401 72.7929 105.401 72.8027 105.401C72.8126 105.401 72.8224 105.401 72.8322 105.401C72.842 105.401 72.8518 105.401 72.8616 105.401C72.8714 105.401 72.8812 105.401 72.891 105.401C72.9007 105.401 72.9105 105.401 72.9202 105.401C72.9299 105.401 72.9397 105.401 72.9494 105.401C72.9591 105.401 72.9688 105.401 72.9785 105.401C72.9881 105.401 72.9978 105.401 73.0075 105.401C73.0171 105.401 73.0267 105.401 73.0364 105.401C73.046 105.401 73.0556 105.401 73.0652 105.401C73.0748 105.401 73.0844 105.401 73.0939 105.401C73.1035 105.401 73.1131 105.401 73.1226 105.401C73.1321 105.401 73.1417 105.401 73.1512 105.401C73.1607 105.401 73.1702 105.401 73.1797 105.401C73.1892 105.401 73.1986 105.401 73.2081 105.401C73.2175 105.401 73.227 105.401 73.2364 105.401C73.2458 105.401 73.2552 105.401 73.2646 105.401C73.274 105.401 73.2834 105.401 73.2928 105.401C73.3022 105.401 73.3115 105.401 73.3208 105.401C73.3302 105.401 73.3395 105.401 73.3488 105.401C73.3581 105.401 73.3674 105.401 73.3767 105.401C73.386 105.401 73.3952 105.401 73.4045 105.401C73.4137 105.401 73.423 105.401 73.4322 105.401C73.4414 105.401 73.4506 105.401 73.4598 105.401C73.469 105.401 73.4781 105.401 73.4873 105.401C73.4965 105.401 73.5056 105.401 73.5147 105.401C73.5239 105.401 73.533 105.401 73.5421 105.401C73.5512 105.401 73.5602 105.401 73.5693 105.401C73.5784 105.401 73.5874 105.401 73.5965 105.401C73.6055 105.401 73.6145 105.401 73.6235 105.401C73.6325 105.401 73.6415 105.401 73.6505 105.401C73.6595 105.401 73.6684 105.401 73.6774 105.401C73.6863 105.401 73.6952 105.401 73.7041 105.401C73.713 105.401 73.7219 105.401 73.7308 105.401C73.7397 105.401 73.7485 105.401 73.7574 105.401C73.7662 105.401 73.7751 105.401 73.7839 105.401C73.7927 105.401 73.8015 105.401 73.8103 105.401C73.819 105.401 73.8278 105.401 73.8366 105.401C73.8453 105.401 73.854 105.401 73.8628 105.401C73.8715 105.401 73.8802 105.401 73.8889 105.401C73.8975 105.401 73.9062 105.401 73.9149 105.401C73.9235 105.401 73.9321 105.401 73.9408 105.401C73.9494 105.401 73.958 105.401 73.9666 105.401C73.9751 105.401 73.9837 105.401 73.9923 105.401C74.0008 105.401 74.0093 105.401 74.0179 105.401C74.0264 105.401 74.0349 105.401 74.0434 105.401C74.0518 105.401 74.0603 105.401 74.0688 105.401C74.0772 105.401 74.0856 105.401 74.0941 105.401C74.1025 105.401 74.1109 105.401 74.1193 105.401C74.1276 105.401 74.136 105.401 74.1443 105.401C74.1527 105.401 74.161 105.401 74.1693 105.401C74.1777 105.401 74.1859 105.401 74.1942 105.401C74.2025 105.401 74.2108 105.401 74.219 105.401C74.2272 105.401 74.2355 105.401 74.2437 105.401C74.2519 105.401 74.2601 105.401 74.2682 105.401C74.2764 105.401 74.2846 105.401 74.2927 105.401C74.3009 105.401 74.309 105.401 74.3171 105.401C74.3252 105.401 74.3333 105.401 74.3413 105.401C74.3494 105.401 74.3575 105.401 74.3655 105.401C74.3735 105.401 74.3815 105.401 74.3895 105.401C74.3975 105.401 74.4055 105.401 74.4135 105.401C74.4214 105.401 74.4294 105.401 74.4373 105.401C74.4452 105.401 74.4531 105.401 74.461 105.401C74.4689 105.401 74.4767 105.401 74.4846 105.401C74.4924 105.401 74.5003 105.401 74.5081 105.401C74.5159 105.401 74.5237 105.401 74.5315 105.401C74.5393 105.401 74.547 105.401 74.5547 105.401C74.5625 105.401 74.5702 105.401 74.5779 105.401C74.5856 105.401 74.5933 105.401 74.601 105.401C74.6086 105.401 74.6163 105.401 74.6239 105.401C74.6315 105.401 74.6391 105.401 74.6467 105.401C74.6543 105.401 74.6619 105.401 74.6694 105.401C74.677 105.401 74.6845 105.401 74.692 105.401C74.6996 105.401 74.7071 105.401 74.7145 105.401C74.722 105.401 74.7295 105.401 74.7369 105.401C74.7443 105.401 74.7518 105.401 74.7592 105.401C74.7666 105.401 74.7739 105.401 74.7813 105.401C74.7887 105.401 74.796 105.401 74.8033 105.401C74.8106 105.401 74.818 105.401 74.8252 105.401C74.8325 105.401 74.8398 105.401 74.847 105.401C74.8543 105.401 74.8615 105.401 74.8687 105.401C74.8759 105.401 74.8831 105.401 74.8903 105.401C74.8974 105.401 74.9046 105.401 74.9117 105.401C74.9188 105.401 74.9259 105.401 74.933 105.401C74.9401 105.401 74.9472 105.401 74.9542 105.401C74.9613 105.401 74.9683 105.401 74.9753 105.401C74.9823 105.401 74.9893 105.401 74.9963 105.401C75.0032 105.401 75.0102 105.401 75.0171 105.401C75.024 105.401 75.0309 105.401 75.0378 105.401C75.0447 105.401 75.0516 105.401 75.0584 105.401C75.0653 105.401 75.0721 105.401 75.0789 105.401C75.0857 105.401 75.0925 105.401 75.0992 105.401C75.106 105.401 75.1127 105.401 75.1195 105.401C75.1262 105.401 75.1329 105.401 75.1396 105.401C75.1463 105.401 75.1529 105.401 75.1596 105.401C75.1662 105.401 75.1728 105.401 75.1794 105.401C75.186 105.401 75.1926 105.401 75.1992 105.401C75.2057 105.401 75.2122 105.401 75.2188 105.401C75.2253 105.401 75.2318 105.401 75.2382 105.401C75.2447 105.401 75.2512 105.401 75.2576 105.401C75.264 105.401 75.2704 105.401 75.2768 105.401C75.2832 105.401 75.2896 105.401 75.2959 105.401C75.3023 105.401 75.3086 105.401 75.3149 105.401C75.3212 105.401 75.3275 105.401 75.3337 105.401C75.34 105.401 75.3462 105.401 75.3525 105.401C75.3587 105.401 75.3649 105.401 75.371 105.401C75.3772 105.401 75.3834 105.401 75.3895 105.401C75.3956 105.401 75.4017 105.401 75.4078 105.401C75.4139 105.401 75.42 105.401 75.426 105.401C75.4321 105.401 75.4381 105.401 75.4441 105.401C75.4501 105.401 75.4561 105.401 75.462 105.401C75.468 105.401 75.4739 105.401 75.4798 105.401C75.4857 105.401 75.4916 105.401 75.4975 105.401C75.5034 105.401 75.5092 105.401 75.515 105.401C75.5209 105.401 75.5267 105.401 75.5324 105.401C75.5382 105.401 75.544 105.401 75.5497 105.401C75.5555 105.401 75.5612 105.401 75.5669 105.401C75.5725 105.401 75.5782 105.401 75.5839 105.401C75.5895 105.401 75.5951 105.401 75.6007 105.401C75.6063 105.401 75.6119 105.401 75.6175 105.401C75.623 105.401 75.6285 105.401 75.634 105.401C75.6396 105.401 75.645 105.401 75.6505 105.401C75.656 105.401 75.6614 105.401 75.6668 105.401C75.6722 105.401 75.6776 105.401 75.683 105.401C75.6884 105.401 75.6937 105.401 75.6991 105.401C75.7044 105.401 75.7097 105.401 75.715 105.401C75.7202 105.401 75.7255 105.401 75.7307 105.401C75.736 105.401 75.7412 105.401 75.7463 105.401C75.7515 105.401 75.7567 105.401 75.7618 105.401C75.767 105.401 75.7721 105.401 75.7772 105.401C75.7823 105.401 75.7873 105.401 75.7924 105.401C75.7974 105.401 75.8025 105.401 75.8074 105.401C75.8124 105.401 75.8174 105.401 75.8224 105.401C75.8273 105.401 75.8323 105.401 75.8372 105.401C75.8421 105.401 75.8469 105.401 75.8518 105.401C75.8566 105.401 75.8615 105.401 75.8663 105.401C75.8711 105.401 75.8759 105.401 75.8806 105.401C75.8854 105.401 75.8901 105.401 75.8948 105.401C75.8996 105.401 75.9042 105.401 75.9089 105.401C75.9136 105.401 75.9182 105.401 75.9228 105.401C75.9274 105.401 75.932 105.401 75.9366 105.401C75.9411 105.401 75.9457 105.401 75.9502 105.401C75.9547 105.401 75.9592 105.401 75.9637 105.401V102.401ZM77.4637 103.901V86.1451H74.4637V103.901H77.4637ZM91.322 92.0296C91.0841 95.3654 90.6785 100.628 89.8543 103.485L92.7368 104.316C93.6688 101.085 94.0855 95.4526 94.3144 92.243L91.322 92.0296ZM89.8543 103.485C89.0326 106.334 87.9186 108.987 86.5109 111.323L89.0804 112.872C90.643 110.278 91.8539 107.377 92.7368 104.316L89.8543 103.485ZM75.9637 105.401H91.2955V102.401H75.9637V105.401ZM57.7852 128.447L60.3996 125.615L58.1951 123.58L55.5808 126.412L57.7852 128.447ZM57.6995 136.049L63.255 130.929L61.2219 128.723L55.6665 133.843L57.6995 136.049ZM98.0055 83.3493C102.831 76.3305 105.042 72.2069 107.249 64.733L104.372 63.8833C102.278 70.9751 100.233 74.8129 95.5333 81.6497L98.0055 83.3493ZM111.5 9.95191V64.3081H114.5V9.95191H111.5ZM111.581 63.8219C108.632 72.4276 106.356 76.5888 101.725 83.6365L104.232 85.284C108.972 78.071 111.373 73.6841 114.419 64.7944L111.581 63.8219ZM60.3867 105.401H75.9637V102.401H60.3867V105.401ZM75.25 87.4645C81.0621 90.6084 84.2567 91.0827 92.3789 93.5705L93.2575 90.7021C84.8672 88.1321 82.1431 87.7823 76.6773 84.8258L75.25 87.4645Z" fill="#3C83B7"/>
</svg>
